<?xml version="1.0" standalone="no"?>
<!DOCTYPE svg PUBLIC "-//W3C//DTD SVG 20010904//EN"
 "http://www.w3.org/TR/2001/REC-SVG-20010904/DTD/svg10.dtd">
<svg version="1.0" xmlns="http://www.w3.org/2000/svg"
 width="600.000000pt" height="600.000000pt" viewBox="0 0 600.000000 600.000000"
 preserveAspectRatio="xMidYMid meet">
<g transform="translate(0.000000,600.000000) scale(0.100000,-0.100000)"
fill="#ffffff" stroke="none">
<path d="M5051 5761 c-8 -5 -21 -7 -29 -3 -11 4 -13 2 -7 -8 6 -10 4 -12 -8
-7 -10 3 -17 2 -17 -3 0 -6 -7 -10 -15 -10 -8 0 -15 -4 -15 -10 0 -5 -7 -10
-16 -10 -8 0 -32 -12 -52 -27 -20 -16 -32 -21 -27 -13 5 8 -4 5 -19 -8 -16
-12 -33 -19 -39 -15 -5 3 -7 1 -3 -5 8 -13 -118 -77 -134 -67 -6 3 -10 3 -9
-2 4 -21 -2 -33 -15 -33 -8 0 -21 -7 -30 -15 -8 -8 -34 -24 -58 -35 -53 -24
-102 -52 -106 -63 -2 -4 -7 -5 -12 -2 -4 3 -13 -2 -20 -10 -7 -8 -22 -15 -33
-15 -11 0 -17 -3 -13 -7 3 -4 -15 -16 -41 -28 -27 -11 -70 -35 -97 -52 -27
-18 -52 -30 -57 -28 -4 3 -11 0 -15 -6 -4 -8 -3 -9 4 -5 7 4 12 5 12 2 0 -8
-73 -40 -85 -37 -5 2 -7 -1 -3 -5 10 -9 -74 -54 -87 -46 -5 3 -7 2 -3 -3 4 -4
-6 -15 -22 -24 -98 -54 -129 -69 -134 -64 -3 4 -6 1 -6 -5 0 -7 -10 -12 -22
-13 -13 0 -17 -3 -11 -6 12 -4 -13 -20 -122 -76 -22 -12 -42 -24 -45 -27 -3
-4 -25 -17 -50 -31 -25 -13 -48 -28 -51 -32 -3 -5 -8 -8 -10 -7 -9 4 -59 -24
-59 -32 0 -5 -4 -7 -9 -3 -5 3 -15 -1 -23 -7 -7 -7 -39 -26 -70 -41 -32 -15
-58 -32 -58 -37 0 -6 -9 -10 -19 -10 -10 0 -22 -7 -25 -16 -4 -9 -9 -14 -13
-11 -3 4 -20 -4 -37 -16 -17 -12 -37 -20 -44 -19 -8 2 -11 -1 -7 -7 6 -10 -8
-16 -28 -12 -5 1 -6 -3 -2 -9 3 -5 -3 -10 -14 -10 -11 0 -22 -4 -25 -9 -6 -9
-43 -30 -138 -78 -25 -13 -52 -31 -58 -38 -7 -8 -19 -15 -26 -15 -8 0 -14 -4
-14 -9 0 -5 -13 -11 -29 -14 -16 -4 -38 -15 -48 -25 -10 -10 -48 -33 -84 -50
-36 -17 -72 -38 -79 -47 -7 -8 -20 -15 -30 -15 -10 0 -23 -7 -30 -15 -7 -8
-18 -15 -25 -15 -7 0 -24 -9 -39 -21 -14 -11 -26 -17 -26 -12 0 4 -7 -1 -15
-11 -8 -11 -15 -17 -15 -13 0 6 -60 -30 -86 -52 -7 -6 -15 -7 -18 -4 -3 4 -6
1 -6 -5 0 -7 -3 -11 -7 -10 -11 2 -61 -23 -110 -55 -24 -15 -47 -27 -53 -27
-5 0 -10 -3 -10 -8 0 -4 -9 -13 -21 -20 -17 -11 -20 -11 -14 0 3 7 0 5 -8 -4
-8 -10 -19 -18 -26 -18 -6 0 -11 -5 -11 -11 0 -6 -7 -8 -15 -5 -9 3 -18 -1
-21 -9 -3 -8 -12 -11 -21 -8 -10 4 -14 2 -10 -4 4 -6 -4 -14 -18 -17 -14 -4
-25 -11 -25 -16 0 -6 -5 -10 -11 -10 -6 0 -45 -20 -85 -45 -41 -24 -74 -42
-74 -38 0 3 -10 -2 -22 -13 -14 -13 -19 -14 -14 -4 5 9 2 8 -7 -2 -8 -10 -17
-15 -20 -11 -4 3 -7 2 -7 -4 0 -5 -21 -21 -47 -34 -27 -13 -51 -28 -54 -32 -3
-5 -9 -8 -13 -8 -20 3 -26 0 -21 -9 3 -5 -3 -10 -14 -10 -12 0 -21 -4 -21 -8
0 -5 -19 -18 -42 -31 -24 -12 -50 -26 -58 -31 -47 -27 -106 -58 -113 -59 -4 0
-16 -8 -25 -19 -9 -10 -13 -11 -7 -2 5 8 -1 6 -15 -6 -14 -12 -32 -24 -40 -28
-8 -3 -33 -17 -55 -30 -22 -13 -44 -22 -50 -18 -5 3 -7 1 -2 -3 4 -5 -28 -27
-70 -50 -43 -23 -95 -51 -115 -62 -54 -32 -111 -66 -133 -81 -11 -7 -36 -20
-55 -28 -19 -9 -37 -19 -40 -23 -3 -3 -15 -12 -27 -18 -13 -7 -33 -19 -45 -25
-39 -22 -59 -41 -89 -86 -46 -68 -56 -94 -58 -146 -1 -27 -3 -51 -5 -53 -10
-10 18 -91 45 -130 16 -25 24 -41 17 -37 -7 3 -1 -5 14 -20 15 -14 32 -26 38
-26 6 0 8 -4 5 -10 -3 -5 1 -10 9 -10 9 0 16 -4 16 -10 0 -5 3 -9 8 -8 8 3 64
-32 73 -46 4 -5 12 -5 19 -1 8 5 11 4 7 -2 -6 -9 25 -30 47 -31 5 0 12 -4 15
-10 6 -9 47 -33 94 -54 15 -7 27 -16 27 -21 0 -4 4 -5 10 -2 5 3 10 1 10 -5 0
-6 4 -9 9 -6 5 4 11 3 13 -2 5 -12 77 -52 94 -52 9 0 12 -5 8 -13 -4 -6 -4 -9
1 -5 4 4 22 -4 40 -17 17 -14 35 -25 39 -25 5 0 20 -9 36 -20 15 -11 30 -17
34 -13 3 3 6 1 6 -5 0 -6 16 -16 35 -22 19 -6 33 -15 31 -19 -3 -4 11 -15 30
-25 24 -11 33 -12 28 -4 -8 12 4 5 49 -32 9 -8 22 -16 27 -16 6 -1 15 -2 21
-3 5 0 7 -6 3 -13 -5 -8 -2 -9 9 -5 10 3 17 3 17 -1 0 -5 16 -14 35 -22 19 -8
35 -17 35 -22 0 -4 9 -8 20 -8 10 0 24 -9 30 -20 6 -11 16 -17 25 -14 8 4 15
1 15 -5 0 -6 16 -17 36 -26 19 -8 48 -24 65 -35 16 -12 29 -18 29 -14 0 4 8 0
18 -8 15 -13 87 -56 177 -106 17 -9 54 -31 82 -49 29 -18 60 -33 68 -33 9 0
14 -4 10 -9 -3 -5 5 -11 17 -13 13 -2 22 -9 20 -16 -1 -8 2 -11 7 -8 10 7 50
-14 115 -58 21 -14 43 -26 48 -26 5 0 28 -13 51 -28 23 -16 57 -34 74 -41 18
-8 33 -17 33 -21 0 -4 20 -15 45 -24 29 -11 43 -22 38 -29 -3 -7 -3 -9 1 -5 5
4 26 -4 47 -18 21 -13 46 -24 55 -24 10 0 15 -3 11 -6 -3 -3 7 -17 22 -30 36
-30 52 -32 20 -3 -14 12 -9 10 13 -5 20 -14 41 -26 46 -26 5 0 15 -7 22 -15 7
-8 21 -15 32 -15 12 0 17 -4 12 -12 -4 -7 -3 -10 1 -5 5 4 17 -1 28 -10 15
-13 18 -14 12 -3 -5 9 2 7 16 -6 13 -11 42 -29 64 -40 22 -10 45 -24 51 -30 7
-6 37 -23 68 -38 33 -16 53 -32 50 -38 -4 -6 -3 -8 3 -5 11 7 129 -47 135 -62
1 -5 9 -11 17 -13 8 -2 23 -11 33 -21 11 -10 26 -16 34 -13 8 3 13 2 10 -2 -2
-4 32 -27 77 -52 45 -24 84 -46 87 -50 3 -3 27 -17 53 -31 90 -45 102 -52 109
-63 4 -6 10 -7 14 -4 3 4 12 2 20 -5 36 -33 45 -37 56 -31 7 4 8 3 4 -4 -5 -8
0 -12 14 -12 11 0 23 -7 26 -15 4 -8 10 -12 15 -9 5 3 9 1 9 -4 0 -4 16 -14
35 -22 19 -8 35 -18 35 -23 0 -5 7 -6 16 -3 8 3 13 2 10 -3 -5 -7 43 -36 53
-31 2 1 7 -3 10 -9 4 -5 37 -26 73 -44 37 -19 64 -38 60 -41 -3 -4 2 -4 12 0
12 5 17 4 13 -2 -3 -6 10 -16 29 -23 18 -7 34 -16 34 -20 0 -5 22 -18 49 -30
28 -11 53 -26 56 -31 3 -6 16 -10 27 -10 12 0 18 -3 15 -7 -9 -9 52 -45 64
-38 5 4 9 2 9 -3 0 -10 101 -68 113 -64 4 1 7 -3 7 -10 0 -6 3 -8 6 -5 4 3 15
-5 26 -18 11 -14 24 -22 29 -19 6 3 20 -2 31 -13 15 -12 19 -13 14 -3 -6 12
-4 11 6 -1 7 -9 29 -24 48 -34 19 -10 55 -31 79 -48 24 -17 40 -24 36 -16 -5
8 0 7 12 -4 11 -9 26 -17 34 -17 19 -1 50 -25 42 -33 -3 -4 2 -7 12 -7 10 0
27 -8 38 -18 11 -9 17 -11 13 -4 -4 6 -2 12 3 12 6 0 11 -4 11 -9 0 -24 162
-32 202 -9 13 7 25 13 28 14 18 4 48 19 62 31 9 9 23 12 30 7 7 -4 10 -4 6 1
-4 4 8 26 27 48 19 22 35 47 35 54 0 8 5 11 10 8 6 -4 10 -3 8 2 -1 4 6 42 15
83 16 70 17 244 15 2540 -3 2330 -4 2468 -21 2517 -10 29 -24 59 -33 68 -8 8
-12 15 -8 15 5 0 -10 18 -33 39 -22 22 -38 42 -35 45 3 3 -2 6 -11 6 -9 0 -36
10 -59 22 -32 17 -63 24 -123 26 -44 1 -86 -1 -94 -7z m225 -54 c83 -42 132
-108 153 -205 15 -74 16 -4912 0 -4998 -19 -106 -73 -175 -172 -218 -69 -31
-148 -34 -222 -8 -45 16 -261 138 -1375 775 -173 99 -331 189 -350 200 -19 10
-64 36 -100 57 -36 21 -83 48 -105 60 -38 21 -122 69 -343 196 -51 30 -95 54
-97 54 -2 0 -49 27 -104 60 -56 33 -103 60 -105 60 -3 0 -50 27 -106 60 -56
33 -103 60 -106 60 -2 0 -41 22 -86 49 -46 27 -227 131 -403 231 -340 194
-366 209 -418 239 -18 10 -69 39 -113 64 -43 25 -187 107 -319 182 -251 143
-306 185 -346 263 -36 70 -33 168 6 240 39 72 69 96 232 188 76 43 186 106
246 141 59 35 109 63 111 63 3 0 50 27 106 60 56 33 103 60 105 60 2 0 49 27
105 60 56 33 103 60 106 60 2 0 38 21 81 46 43 25 103 60 133 77 30 16 147 83
260 147 193 111 829 473 1400 798 246 139 333 189 560 319 58 34 121 70 140
80 97 55 332 189 380 217 178 106 479 271 514 282 64 21 171 12 232 -19z"/>
<path d="M5309 5648 c-5 -18 -6 -38 -1 -34 7 8 12 36 6 36 -2 0 -4 -1 -5 -2z"/>
<path d="M2796 4412 c-3 -5 1 -9 9 -9 8 0 12 4 9 9 -3 4 -7 8 -9 8 -2 0 -6 -4
-9 -8z"/>
<path d="M995 3380 c-3 -6 1 -7 9 -4 18 7 21 14 7 14 -6 0 -13 -4 -16 -10z"/>
<path d="M1816 2148 c3 -5 10 -6 15 -3 13 9 11 12 -6 12 -8 0 -12 -4 -9 -9z"/>
<path d="M2135 1981 c-3 -5 -2 -12 3 -15 5 -3 9 1 9 9 0 17 -3 19 -12 6z"/>
<path d="M5304 375 c1 -8 6 -18 11 -22 4 -4 5 -3 2 4 -4 6 -2 13 5 15 8 3 6 6
-4 10 -10 4 -15 2 -14 -7z"/>
</g>
</svg>
