<svg version="1.0" xmlns="http://www.w3.org/2000/svg" width="600.000000pt" height="600.000000pt" viewBox="0 0 600.000000 600.000000" preserveAspectRatio="xMidYMid meet" style="width: 498px; height: auto;"> <g transform="translate(0.000000,600.000000) scale(0.100000,-0.100000)" fill="#fffafa" stroke="none"> <path d="M0 3000 l0 -3000 3000 0 3000 0 0 3000 0 3000 -3000 0 -3000 0 0 -3000z m5268 2742 c23 -12 50 -22 59 -22 9 0 14 -3 11 -6 -3 -3 13 -23 35 -45 23 -21 38 -39 33 -39 -4 0 0 -7 8 -15 9 -9 23 -39 33 -68 17 -49 18 -187 21 -2517 2 -2296 1 -2470 -15 -2540 -9 -41 -16 -79 -15 -83 2 -5 -2 -6 -8 -2 -5 3 -10 0 -10 -8 0 -7 -16 -32 -35 -54 -19 -22 -31 -44 -27 -48 4 -5 1 -5 -6 -1 -7 5 -21 2 -30 -7 -14 -12 -44 -27 -62 -31 -3 -1 -15 -7 -28 -14 -40 -23 -202 -15 -202 9 0 5 -5 9 -11 9 -5 0 -7 -6 -3 -12 4 -7 -2 -5 -13 4 -11 10 -28 18 -38 18 -10 0 -15 3 -12 7 8 8 -23 32 -42 33 -8 0 -23 8 -34 17 -12 11 -17 12 -12 4 4 -8 -12 -1 -36 16 -24 17 -60 38 -79 48 -19 10 -41 25 -48 34 -10 12 -12 13 -6 1 5 -10 1 -9 -14 3 -11 11 -25 16 -31 13 -5 -3 -18 5 -29 19 -11 13 -22 21 -26 18 -3 -3 -6 -1 -6 5 0 7 -3 11 -7 10 -12 -4 -113 54 -113 64 0 5 -4 7 -9 3 -12 -7 -73 29 -64 38 3 4 -3 7 -15 7 -11 0 -24 4 -27 10 -3 5 -28 20 -56 31 -27 12 -49 25 -49 30 0 4 -16 13 -34 20 -19 7 -32 17 -29 23 4 6 -1 7 -13 2 -10 -4 -15 -4 -12 0 4 3 -23 22 -60 41 -36 18 -69 39 -73 44 -3 6 -8 10 -10 9 -10 -5 -58 24 -53 31 3 5 -2 6 -10 3 -9 -3 -16 -2 -16 3 0 5 -16 15 -35 23 -19 8 -35 18 -35 22 0 5 -4 7 -9 4 -5 -3 -11 1 -15 9 -3 8 -15 15 -26 15 -14 0 -19 4 -14 12 4 7 3 8 -4 4 -11 -6 -20 -2 -56 31 -8 7 -17 9 -20 5 -4 -3 -10 -2 -14 4 -7 11 -19 18 -109 63 -26 14 -50 28 -53 31 -3 4 -42 26 -87 50 -45 25 -79 48 -77 52 3 4 -2 5 -10 2 -8 -3 -23 3 -34 13 -10 10 -25 19 -33 21 -8 2 -16 8 -17 13 -6 15 -124 69 -135 62 -6 -3 -7 -1 -3 5 3 6 -17 22 -50 38 -31 15 -61 32 -68 38 -6 6 -29 20 -51 30 -22 11 -51 29 -64 40 -14 13 -21 15 -16 6 6 -11 3 -10 -12 3 -11 9 -23 14 -28 10 -4 -5 -5 -2 -1 5 5 8 0 12 -12 12 -11 0 -25 7 -32 15 -7 8 -17 15 -22 15 -5 0 -26 12 -46 26 -22 15 -27 17 -13 5 32 -29 16 -27 -20 3 -15 13 -25 27 -22 30 4 3 -1 6 -11 6 -9 0 -34 11 -55 24 -21 14 -42 22 -47 18 -4 -4 -4 -2 -1 5 5 7 -9 18 -38 29 -25 9 -45 20 -45 24 0 4 -15 13 -33 21 -17 7 -51 25 -74 41 -23 15 -46 28 -51 28 -5 0 -27 12 -48 26 -65 44 -105 65 -115 58 -5 -3 -8 0 -7 8 2 7 -7 14 -20 16 -12 2 -20 8 -17 13 4 5 -1 9 -10 9 -8 0 -39 15 -68 33 -28 18 -65 40 -82 49 -90 50 -162 93 -177 106 -10 8 -18 12 -18 8 0 -4 -13 2 -29 14 -17 11 -46 27 -65 35 -20 9 -36 20 -36 26 0 6 -7 9 -15 5 -9 -3 -19 3 -25 14 -6 11 -20 20 -30 20 -11 0 -20 4 -20 8 0 5 -16 14 -35 22 -19 8 -35 17 -35 22 0 4 -7 4 -17 1 -11 -4 -14 -3 -9 5 4 7 2 13 -3 13 -6 1 -15 2 -21 3 -5 0 -18 8 -27 16 -45 37 -57 44 -49 32 5 -8 -4 -7 -28 4 -19 10 -33 21 -30 25 2 4 -12 13 -31 19 -19 6 -35 16 -35 22 0 6 -3 8 -6 5 -4 -4 -19 2 -34 13 -16 11 -31 20 -36 20 -4 0 -22 11 -39 25 -18 13 -36 21 -40 17 -5 -4 -5 -1 -1 5 4 8 1 13 -8 13 -17 0 -89 40 -94 52 -2 5 -8 6 -13 2 -5 -3 -9 0 -9 6 0 6 -5 8 -10 5 -6 -3 -10 -2 -10 2 0 5 -12 14 -27 21 -47 21 -88 45 -94 54 -3 6 -10 10 -15 10 -22 1 -53 22 -47 31 4 6 1 7 -7 2 -7 -4 -15 -4 -19 1 -9 14 -65 49 -73 46 -5 -1 -8 3 -8 8 0 6 -7 10 -16 10 -8 0 -12 5 -9 10 3 6 1 10 -5 10 -6 0 -23 12 -38 26 -15 15 -21 23 -14 20 7 -4 -1 12 -17 37 -27 39 -55 120 -45 130 2 2 4 26 5 53 2 52 12 78 58 146 30 45 50 64 89 86 12 6 32 18 45 25 12 6 24 15 27 18 3 4 21 14 40 23 19 8 44 21 55 28 22 15 79 49 133 81 20 11 72 39 115 62 42 23 74 45 70 50 -5 4 -3 6 2 3 6 -4 28 5 50 18 22 13 47 27 55 30 8 4 26 16 40 28 14 12 20 14 15 6 -6 -9 -2 -8 7 2 9 11 21 19 25 19 7 1 66 32 113 59 8 5 34 19 58 31 23 13 42 26 42 31 0 4 9 8 21 8 11 0 17 5 14 10 -5 9 1 12 21 9 4 0 10 3 13 8 3 4 27 19 54 32 26 13 47 29 47 34 0 6 3 7 7 4 3 -4 12 1 20 11 9 10 12 11 7 2 -5 -10 0 -9 14 4 12 11 22 16 22 13 0 -4 33 14 74 38 40 25 79 45 85 45 6 0 11 4 11 10 0 5 11 12 25 16 14 3 22 11 18 17 -4 6 0 8 10 4 9 -3 18 0 21 8 3 8 12 12 21 9 8 -3 15 -1 15 5 0 6 5 11 11 11 7 0 18 8 26 18 8 9 11 11 8 4 -6 -11 -3 -11 14 0 12 7 21 16 21 20 0 5 5 8 10 8 6 0 29 12 53 27 49 32 99 57 110 55 4 -1 7 3 7 10 0 6 3 9 6 5 3 -3 11 -2 18 4 26 22 86 58 86 52 0 -4 7 2 15 13 8 10 15 15 15 11 0 -5 12 1 26 12 15 12 32 21 39 21 7 0 18 7 25 15 7 8 20 15 30 15 10 0 23 7 30 15 7 9 43 30 79 47 36 17 74 40 84 50 10 10 32 21 48 25 16 3 29 9 29 14 0 5 6 9 14 9 7 0 19 7 26 15 6 7 33 25 58 38 95 48 132 69 138 78 3 5 14 9 25 9 11 0 17 5 14 10 -4 6 -3 10 2 9 20 -4 34 2 28 12 -4 6 -1 9 7 7 7 -1 27 7 44 19 17 12 34 20 37 16 4 -3 9 2 13 11 3 9 15 16 25 16 10 0 19 4 19 10 0 5 26 22 58 37 31 15 63 34 70 41 8 6 18 10 23 7 5 -4 9 -2 9 3 0 8 50 36 59 32 2 -1 7 2 10 7 3 4 26 19 51 32 25 14 47 27 50 31 3 3 23 15 45 27 109 56 134 72 122 76 -6 3 -2 6 11 6 12 1 22 6 22 13 0 6 3 9 6 5 5 -5 36 10 134 64 16 9 26 20 22 24 -4 5 -2 6 3 3 13 -8 97 37 87 46 -4 4 -2 7 3 5 12 -3 85 29 85 37 0 3 -5 2 -12 -2 -7 -4 -8 -3 -4 5 4 6 11 9 15 6 5 -2 30 10 57 28 27 17 70 41 97 52 26 12 44 24 41 28 -4 4 2 7 13 7 11 0 26 7 33 15 7 8 16 13 20 10 5 -3 10 -2 12 2 4 11 53 39 106 63 24 11 50 27 58 35 9 8 22 15 30 15 13 0 19 12 15 33 -1 5 3 5 9 2 16 -10 142 54 134 67 -4 6 -2 8 3 5 6 -4 23 3 39 15 15 13 24 16 19 8 -5 -8 7 -3 27 13 20 15 44 27 52 27 9 0 16 5 16 10 0 6 7 10 15 10 8 0 15 4 15 10 0 5 7 6 17 3 12 -5 14 -3 8 7 -6 10 -4 12 7 8 8 -4 21 -2 29 3 8 6 50 8 94 7 60 -2 91 -9 123 -26z" class=""></path>  </g> </svg>