<svg width="30" height="30" viewBox="0 0 30 30" fill="none" xmlns="http://www.w3.org/2000/svg">
<path fill-rule="evenodd" clip-rule="evenodd" d="M5.40659 3.34639C4.41879 2.59703 3 3.30156 3 4.54142V25.4586C3 26.6985 4.41879 27.4029 5.40659 26.6536L19.1928 16.195C19.9841 15.5947 19.9841 14.4052 19.1928 13.8049L5.40659 3.34639ZM0 4.54142C0 0.821825 4.25637 -1.29176 7.21974 0.956315L21.006 11.4149C23.3798 13.2156 23.3798 16.7844 21.006 18.5851L7.21974 29.0437C4.25637 31.2918 0 29.1781 0 25.4586V4.54142Z" fill="white"/>
<path d="M27 1.5C27 0.67158 27.6716 0 28.5 0C29.3284 0 30 0.67158 30 1.5V28.5C30 29.3284 29.3284 30 28.5 30C27.6716 30 27 29.3284 27 28.5V1.5Z" fill="white"/>
</svg>
