<svg width="35" height="33" viewBox="0 0 35 33" fill="none" xmlns="http://www.w3.org/2000/svg">
<path d="M20.125 5.6666V27.3329C20.125 28.1074 20.125 28.4946 20.22 28.8165C20.6106 30.1389 22.1446 31.173 24.1083 31.436C24.5864 31.5 25.1614 31.5 26.3115 31.5C27.4614 31.5 28.0386 31.5 28.5167 31.436C30.4804 31.173 32.0152 30.1389 32.4057 28.8165C32.5 28.4974 32.5 28.1141 32.5 27.3532V5.64621C32.5 4.88536 32.5 4.5014 32.4057 4.18226C32.0152 2.85996 30.4794 1.82706 28.5157 1.56405C28.0376 1.5 27.4626 1.5 26.3125 1.5C25.1624 1.5 24.5864 1.5 24.1083 1.56405C22.1446 1.82706 20.6106 2.85996 20.22 4.18226C20.125 4.50423 20.125 4.89218 20.125 5.6666Z" stroke="white" stroke-width="2" stroke-linecap="round" stroke-linejoin="round"/>
<path d="M2.5 5.6666V27.3329C2.5 28.1074 2.5 28.4946 2.59511 28.8165C2.98569 30.1389 4.51958 31.173 6.48322 31.436C6.96136 31.5 7.53638 31.5 8.68641 31.5C9.83642 31.5 10.4136 31.5 10.8918 31.436C12.8554 31.173 14.3902 30.1389 14.7807 28.8165C14.875 28.4974 14.875 28.1141 14.875 27.3532V5.64621C14.875 4.88536 14.875 4.5014 14.7807 4.18226C14.3902 2.85996 12.8543 1.82706 10.8907 1.56405C10.4125 1.5 9.83751 1.5 8.6875 1.5C7.53749 1.5 6.96136 1.5 6.48322 1.56405C4.51958 1.82706 2.98569 2.85996 2.59511 4.18226C2.5 4.50423 2.5 4.89218 2.5 5.6666Z" stroke="white" stroke-width="2" stroke-linecap="round" stroke-linejoin="round"/>
</svg>
