<svg width="35" height="35" viewBox="0 0 35 35" fill="none" xmlns="http://www.w3.org/2000/svg">
<path fill-rule="evenodd" clip-rule="evenodd" d="M24.5934 29.1536C25.5812 29.903 27 29.1984 27 27.9586L27 7.04141C27 5.80151 25.5812 5.09711 24.5934 5.84636L10.8072 16.305C10.0159 16.9053 10.0159 18.0948 10.8072 18.6951L24.5934 29.1536ZM30 27.9586C30 31.6782 25.7436 33.7918 22.7803 31.5437L8.994 21.0851C6.62025 19.2844 6.62025 15.7156 8.994 13.9149L22.7803 3.45626C25.7436 1.20821 30 3.32186 30 7.04141L30 27.9586Z" fill="white"/>
<path d="M3 31C3 31.8284 2.32845 32.5 1.5 32.5C0.67155 32.5 0 31.8284 0 31L0 4C0 3.17155 0.67155 2.5 1.5 2.5C2.32845 2.5 3 3.17155 3 4L3 31Z" fill="white"/>
</svg>
