<?xml version="1.0" encoding="UTF-8" standalone="no"?>
<svg
   viewBox="0 0 48 48"
   version="1.1"
   id="svg8"
   sodipodi:docname="01d.svg"
   inkscape:version="1.3 (0e150ed6c4, 2023-07-21)"
   xmlns:inkscape="http://www.inkscape.org/namespaces/inkscape"
   xmlns:sodipodi="http://sodipodi.sourceforge.net/DTD/sodipodi-0.dtd"
   xmlns="http://www.w3.org/2000/svg"
   xmlns:svg="http://www.w3.org/2000/svg">
  <defs
     id="defs8" />
  <sodipodi:namedview
     id="namedview8"
     pagecolor="#ffffff"
     bordercolor="#000000"
     borderopacity="0.25"
     inkscape:showpageshadow="2"
     inkscape:pageopacity="0.0"
     inkscape:pagecheckerboard="0"
     inkscape:deskcolor="#d1d1d1"
     inkscape:zoom="8.5520833"
     inkscape:cx="22.216809"
     inkscape:cy="27.069428"
     inkscape:window-width="1920"
     inkscape:window-height="1017"
     inkscape:window-x="-8"
     inkscape:window-y="-8"
     inkscape:window-maximized="1"
     inkscape:current-layer="svg8" />
  <!-- Nap közepe -->
  <circle
     cx="24"
     cy="24"
     r="10.344702"
     fill="#ffac33"
     id="circle1"
     style="stroke-width:1.14941" />
  <!-- Sugarak -->
  <g
     fill="#ffac33"
     id="g8"
     transform="matrix(1.1494113,0,0,1.1494113,-3.5858708,-3.5858709)">
    <!-- Fent -->
    <rect
       x="22.5"
       y="6"
       width="3"
       height="5"
       rx="1.5"
       id="rect1" />
    <!-- Lent -->
    <rect
       x="22.5"
       y="37"
       width="3"
       height="5"
       rx="1.5"
       id="rect2" />
    <!-- Bal -->
    <rect
       x="6"
       y="22.5"
       width="5"
       height="3"
       rx="1.5"
       id="rect3" />
    <!-- Jobb -->
    <rect
       x="37"
       y="22.5"
       width="5"
       height="3"
       rx="1.5"
       id="rect4" />
    <!-- Átlósak (közelebb és rövidebb) -->
    <rect
       x="10"
       y="10"
       width="3"
       height="5"
       rx="1.5"
       transform="rotate(-45,11.5,12.5)"
       id="rect5" />
    <rect
       x="35"
       y="10"
       width="3"
       height="5"
       rx="1.5"
       transform="rotate(45,36.5,12.5)"
       id="rect6" />
    <rect
       x="10"
       y="33"
       width="3"
       height="5"
       rx="1.5"
       transform="rotate(45,11.5,35.5)"
       id="rect7" />
    <rect
       x="35"
       y="33"
       width="3"
       height="5"
       rx="1.5"
       transform="rotate(-45,36.5,35.5)"
       id="rect8" />
  </g>
</svg>
