<?xml version="1.0" encoding="UTF-8"?>
<svg xmlns="http://www.w3.org/2000/svg" viewBox="0 0 48 48">

  <!-- Nap -->
  <circle cx="18" cy="18" r="7" fill="#ffac33"/>

  <!-- 8 sugár -->
  <g fill="#ffac33">

    <!-- Fent / Lent -->
    <rect x="17" y="5" width="2" height="4" rx="1"/>
    <rect x="17" y="27" width="2" height="4" rx="1"/>

    <!-- Bal / Jobb -->
    <rect x="5" y="17" width="4" height="2" rx="1"/>
    <rect x="27" y="17" width="4" height="2" rx="1"/>

    <!-- Átlósak -->
    <rect x="9" y="9" width="2" height="4" rx="1" transform="rotate(-45 10 11)"/>
    <rect x="25" y="9" width="2" height="4" rx="1" transform="rotate(45 26 11)"/>
    <rect x="9" y="23" width="2" height="4" rx="1" transform="rotate(45 10 25)"/>
    <rect x="25" y="23" width="2" height="4" rx="1" transform="rotate(-45 26 25)"/>

  </g>

  <!-- Felhő -->
  <path d="M34 30c0-3-2.5-5.5-5.5-5.5-1.2 0-2.3.4-3.2 1.1C24.7 23.5 22.6 22 20 22c-3.3 0-6 2.7-6 6 0 .3 0 .6.1.9C12.3 29.4 11 31 11 33c0 2.2 1.8 4 4 4h19c2.2 0 4-1.8 4-4s-1.8-3-4-3z"
        fill="#d1d5db"/>

</svg>