<?xml version="1.0" encoding="UTF-8"?>
<svg xmlns="http://www.w3.org/2000/svg" viewBox="0 0 48 48">

  <!-- Hold (nagyobb + jobban hátul) -->
  <defs>
    <mask id="moonMask">
      <rect width="100%" height="100%" fill="white"/>
      <circle cx="36" cy="18" r="8" fill="black"/>
    </mask>
  </defs>

  <circle cx="30" cy="18" r="8" fill="#facc15" mask="url(#moonMask)"/>

  <!-- Felhő (előtte) -->
  <path d="M30 30c0-3-2.5-5.5-5.5-5.5-1.2 0-2.3.4-3.2 1.1C20.7 23.5 18.6 22 16 22c-3.3 0-6 2.7-6 6 0 .3 0 .6.1.9C8.3 29.4 7 31 7 33c0 2.2 1.8 4 4 4h19c2.2 0 4-1.8 4-4s-1.8-3-4-3z"
        fill="#d1d5db"/>

</svg>