<?xml version="1.0" encoding="UTF-8"?>
<svg xmlns="http://www.w3.org/2000/svg" viewBox="0 0 48 48">
    <path 
        d="M39 25c0-3-2.5-5.5-5.5-5.5-1.2 0-2.3.4-3.2 1.1C29.7 18.5 27.6 17 25 17c-3.3 0-6 2.7-6 6 0 .3 0 .6.1.9C17.3 24.4 16 26 16 28c0 2.2 1.8 4 4 4h19c2.2 0 4-1.8 4-4s-1.8-3-4-3z"       
        fill="#2d2e30"
    />
        
    <path 
        d="M34 30c0-3-2.5-5.5-5.5-5.5-1.2 0-2.3.4-3.2 1.1C24.7 23.5 22.6 22 20 22c-3.3 0-6 2.7-6 6 0 .3 0 .6.1.9C12.3 29.4 11 31 11 33c0 2.2 1.8 4 4 4h19c2.2 0 4-1.8 4-4s-1.8-3-4-3z"
        fill="#c1d5db"
    />
</svg>
