<?xml version="1.0" encoding="UTF-8" standalone="no"?>
<svg
   viewBox="0 0 48 48"
   version="1.1"
   id="svg2"
   sodipodi:docname="09d.svg"
   inkscape:version="1.3 (0e150ed6c4, 2023-07-21)"
   xmlns:inkscape="http://www.inkscape.org/namespaces/inkscape"
   xmlns:sodipodi="http://sodipodi.sourceforge.net/DTD/sodipodi-0.dtd"
   xmlns="http://www.w3.org/2000/svg"
   xmlns:svg="http://www.w3.org/2000/svg">
  <defs
     id="defs2" />
  <sodipodi:namedview
     id="namedview2"
     pagecolor="#ffffff"
     bordercolor="#000000"
     borderopacity="0.25"
     inkscape:showpageshadow="2"
     inkscape:pageopacity="0.0"
     inkscape:pagecheckerboard="0"
     inkscape:deskcolor="#d1d1d1"
     inkscape:zoom="12.094472"
     inkscape:cx="35.388068"
     inkscape:cy="30.881877"
     inkscape:window-width="1920"
     inkscape:window-height="1017"
     inkscape:window-x="-8"
     inkscape:window-y="-8"
     inkscape:window-maximized="1"
     inkscape:current-layer="svg2" />
  <path
     d="m 40.973202,21.097442 c 0,-4.238734 -3.532277,-7.771011 -7.77101,-7.771011 -1.695494,0 -3.249696,0.565164 -4.521316,1.554203 -0.847747,-2.967113 -3.81486,-5.0864807 -7.488429,-5.0864807 -4.662606,0 -8.477466,3.8148597 -8.477466,8.4774667 0,0.423874 0,0.847747 0.141291,1.27162 -2.54324,0.706455 -4.3800235,2.967114 -4.3800235,5.792935 0,3.108404 2.5432385,5.651644 5.6516435,5.651644 h 26.84531 c 3.108404,0 5.651645,-2.54324 5.651645,-5.651644 0,-3.108404 -2.543241,-4.238733 -5.651645,-4.238733 z"
     fill="#2d2e30"
     id="path1"
     style="stroke-width:1.41291" />
  <path
     d="m 33.908646,28.161998 c 0,-4.238734 -3.532276,-7.771011 -7.77101,-7.771011 -1.695494,0 -3.249696,0.565164 -4.521316,1.554202 -0.847747,-2.967114 -3.81486,-5.086481 -7.488428,-5.086481 -4.6626059,0 -8.4774656,3.81486 -8.4774656,8.477467 0,0.423874 0,0.847746 0.1412912,1.27162 -2.5432406,0.706456 -4.3800246,2.967113 -4.3800246,5.792936 0,3.108404 2.5432397,5.651644 5.6516441,5.651644 H 33.908646 c 3.108405,0 5.651645,-2.54324 5.651645,-5.651644 0,-3.108405 -2.54324,-4.238733 -5.651645,-4.238733 z"
     fill="#c1d5db"
     id="path2"
     style="stroke-width:1.41291" />
  <rect
     style="fill:#0864ec;fill-opacity:1"
     id="rect3"
     width="1.9016953"
     height="1.9843776"
     x="8.9296989"
     y="41.837296" />
  <rect
     style="fill:#0864ec;fill-opacity:1"
     id="rect4"
     width="2.3151073"
     height="3.1419313"
     x="13.642596"
     y="41.341202" />
  <rect
     style="fill:#0864ec;fill-opacity:1"
     id="rect5"
     width="2.2324247"
     height="2.3977897"
     x="19.926458"
     y="41.093155" />
  <rect
     style="fill:#0864ec;fill-opacity:1"
     id="rect6"
     width="2.06706"
     height="2.3151073"
     x="30.34444"
     y="40.679741" />
</svg>
