<?xml version="1.0" encoding="UTF-8" standalone="no"?>
<svg
   viewBox="0 0 48 48"
   version="1.1"
   id="svg2"
   sodipodi:docname="09d.svg"
   inkscape:version="1.3 (0e150ed6c4, 2023-07-21)"
   xmlns:inkscape="http://www.inkscape.org/namespaces/inkscape"
   xmlns:sodipodi="http://sodipodi.sourceforge.net/DTD/sodipodi-0.dtd"
   xmlns="http://www.w3.org/2000/svg"
   xmlns:svg="http://www.w3.org/2000/svg">
  <defs
     id="defs2" />
  <sodipodi:namedview
     id="namedview2"
     pagecolor="#ffffff"
     bordercolor="#000000"
     borderopacity="0.25"
     inkscape:showpageshadow="2"
     inkscape:pageopacity="0.0"
     inkscape:pagecheckerboard="0"
     inkscape:deskcolor="#d1d1d1"
     inkscape:zoom="12.094472"
     inkscape:cx="19.016953"
     inkscape:cy="24.680697"
     inkscape:window-width="1920"
     inkscape:window-height="1017"
     inkscape:window-x="-8"
     inkscape:window-y="-8"
     inkscape:window-maximized="1"
     inkscape:current-layer="svg2" />
  <path
     d="m 40.973202,19.691841 c 0,-4.238734 -3.532277,-7.771011 -7.77101,-7.771011 -1.695494,0 -3.249696,0.565164 -4.521316,1.554203 -0.847747,-2.967113 -3.81486,-5.0864805 -7.488429,-5.0864805 -4.662606,0 -8.477466,3.8148595 -8.477466,8.4774665 0,0.423874 0,0.847747 0.141291,1.27162 -2.54324,0.706455 -4.3800235,2.967114 -4.3800235,5.792935 0,3.108404 2.5432385,5.651644 5.6516435,5.651644 h 26.84531 c 3.108404,0 5.651645,-2.54324 5.651645,-5.651644 0,-3.108404 -2.543241,-4.238733 -5.651645,-4.238733 z"
     fill="#2d2e30"
     id="path1"
     style="stroke-width:1.41291" />
  <path
     d="m 33.908646,26.756397 c 0,-4.238734 -3.532276,-7.771011 -7.77101,-7.771011 -1.695494,0 -3.249696,0.565164 -4.521316,1.554202 -0.847747,-2.967114 -3.81486,-5.086481 -7.488428,-5.086481 -4.6626059,0 -8.4774656,3.81486 -8.4774656,8.477467 0,0.423874 0,0.847746 0.1412912,1.27162 C 3.248477,25.90865 1.411693,28.169307 1.411693,30.99513 c 0,3.108404 2.5432397,5.651644 5.6516441,5.651644 H 33.908646 c 3.108405,0 5.651645,-2.54324 5.651645,-5.651644 0,-3.108405 -2.54324,-4.238733 -5.651645,-4.238733 z"
     fill="#c1d5db"
     id="path2"
     style="stroke-width:1.41291" />
  <rect
     style="fill:#4f4fff;fill-opacity:1;stroke-width:1.02215"
     id="rect15"
     width="1.2840582"
     height="4.8652544"
     x="23.413612"
     y="28.684435"
     ry="0.59982544"
     transform="matrix(0.87899973,0.47682226,-0.43104736,0.90232931,0,0)" />
  <rect
     style="fill:#4f4fff;fill-opacity:1;stroke-width:1.02215"
     id="rect15-8"
     width="1.2840582"
     height="4.8652544"
     x="27.120571"
     y="26.749685"
     ry="0.59982544"
     transform="matrix(0.87899973,0.47682226,-0.43104736,0.90232931,0,0)" />
  <rect
     style="fill:#4f4fff;fill-opacity:1;stroke-width:1.02215"
     id="rect15-4"
     width="1.2840582"
     height="4.8652544"
     x="30.867531"
     y="24.927019"
     ry="0.59982544"
     transform="matrix(0.87899973,0.47682226,-0.43104736,0.90232931,0,0)" />
  <rect
     style="fill:#4f4fff;fill-opacity:1;stroke-width:1.02215"
     id="rect15-44"
     width="1.2840582"
     height="4.8652544"
     x="34.577415"
     y="23.190948"
     ry="0.59982544"
     transform="matrix(0.87899973,0.47682226,-0.43104736,0.90232931,0,0)" />
  <rect
     style="fill:#4f4fff;fill-opacity:1;stroke-width:1.02215"
     id="rect15-6"
     width="1.2840582"
     height="4.8652544"
     x="38.081154"
     y="20.97331"
     ry="0.59982544"
     transform="matrix(0.87899973,0.47682226,-0.43104736,0.90232931,0,0)" />
  <rect
     style="fill:#4f4fff;fill-opacity:1;stroke-width:1.02215"
     id="rect15-3"
     width="1.2840582"
     height="4.8652544"
     x="42.369152"
     y="18.931742"
     ry="0.59982544"
     transform="matrix(0.87899973,0.47682226,-0.43104736,0.90232931,0,0)" />
</svg>
