<?xml version="1.0" encoding="UTF-8" standalone="no"?>
<svg
   viewBox="0 0 48 48"
   version="1.1"
   id="svg2"
   sodipodi:docname="09n.svg"
   inkscape:version="1.3 (0e150ed6c4, 2023-07-21)"
   xmlns:inkscape="http://www.inkscape.org/namespaces/inkscape"
   xmlns:sodipodi="http://sodipodi.sourceforge.net/DTD/sodipodi-0.dtd"
   xmlns="http://www.w3.org/2000/svg"
   xmlns:svg="http://www.w3.org/2000/svg">
  <defs
     id="defs2" />
  <sodipodi:namedview
     id="namedview2"
     pagecolor="#ffffff"
     bordercolor="#000000"
     borderopacity="0.25"
     inkscape:showpageshadow="2"
     inkscape:pageopacity="0.0"
     inkscape:pagecheckerboard="0"
     inkscape:deskcolor="#d1d1d1"
     inkscape:zoom="8.5520833"
     inkscape:cx="15.084044"
     inkscape:cy="11.400731"
     inkscape:window-width="1920"
     inkscape:window-height="1017"
     inkscape:window-x="-8"
     inkscape:window-y="-8"
     inkscape:window-maximized="1"
     inkscape:current-layer="svg2" />
  <path
     d="m 40.447016,18.34421 c 0,-4.156541 -3.349574,-7.620326 -7.369063,-7.620326 -1.607794,0 -3.081607,0.554205 -4.287454,1.524065 C 27.986602,9.338371 25.17296,7.2601 21.689403,7.2601 c -4.421438,0 -8.038976,3.740887 -8.038976,8.313083 0,0.415654 0,0.831307 0.133982,1.246962 -2.411693,0.692757 -4.153471,2.909579 -4.153471,5.680607 0,3.04813 2.411693,5.542055 5.359318,5.542055 h 25.45676 c 2.947624,0 5.359318,-2.493925 5.359318,-5.542055 0,-3.048131 -2.411694,-4.156542 -5.359318,-4.156542 z"
     fill="#282f3b"
     id="path1"
     style="stroke-width:1.36248" />
  <path
     d="m 33.747868,25.27178 c 0,-4.156542 -3.349574,-7.620326 -7.369062,-7.620326 -1.607795,0 -3.081607,0.554205 -4.287455,1.524064 -0.803896,-2.909579 -3.617538,-4.987849 -7.101095,-4.987849 -4.421437,0 -8.0389772,3.740887 -8.0389772,8.313083 0,0.415655 0,0.831308 0.1339829,1.246962 -2.4116929,0.692757 -4.1534712,2.909579 -4.1534712,5.680607 0,3.04813 2.411693,5.542055 5.3593179,5.542055 H 33.747868 c 2.947624,0 5.359319,-2.493925 5.359319,-5.542055 0,-3.04813 -2.411695,-4.156541 -5.359319,-4.156541 z"
     fill="#94979c"
     id="path2"
     style="stroke-width:1.36248" />
  <rect
     style="fill:#4f4fff;fill-opacity:1;stroke-width:0.921109"
     id="rect15"
     width="1.1789504"
     height="4.3031726"
     x="23.685328"
     y="27.786324"
     ry="0.53052777"
     transform="rotate(26.978551)" />
  <rect
     style="fill:#4f4fff;fill-opacity:1;stroke-width:0.921109"
     id="rect15-8"
     width="1.1789504"
     height="4.3031726"
     x="27.088848"
     y="26.075094"
     ry="0.53052777"
     transform="rotate(26.978551)" />
  <rect
     style="fill:#4f4fff;fill-opacity:1;stroke-width:0.921109"
     id="rect15-4"
     width="1.1789504"
     height="4.3031726"
     x="30.529099"
     y="24.463001"
     ry="0.53052777"
     transform="rotate(26.978551)" />
  <rect
     style="fill:#4f4fff;fill-opacity:1;stroke-width:0.921109"
     id="rect15-44"
     width="1.1789504"
     height="4.3031726"
     x="33.935307"
     y="22.927498"
     ry="0.53052777"
     transform="rotate(26.978551)" />
  <rect
     style="fill:#4f4fff;fill-opacity:1;stroke-width:0.921109"
     id="rect15-6"
     width="1.1789504"
     height="4.3031726"
     x="37.417759"
     y="21.227776"
     ry="0.53052777"
     transform="rotate(26.978551)" />
  <rect
     style="fill:#4f4fff;fill-opacity:1;stroke-width:0.921109"
     id="rect15-3"
     width="1.1789504"
     height="4.3031726"
     x="41.089245"
     y="19.160357"
     ry="0.53052777"
     transform="rotate(26.978551)" />
</svg>
