<?xml version="1.0" encoding="UTF-8" standalone="no"?>
<svg
   viewBox="0 0 48 48"
   version="1.1"
   id="svg2"
   sodipodi:docname="04n.svg"
   inkscape:version="1.3 (0e150ed6c4, 2023-07-21)"
   xmlns:inkscape="http://www.inkscape.org/namespaces/inkscape"
   xmlns:sodipodi="http://sodipodi.sourceforge.net/DTD/sodipodi-0.dtd"
   xmlns="http://www.w3.org/2000/svg"
   xmlns:svg="http://www.w3.org/2000/svg">
  <defs
     id="defs2" />
  <sodipodi:namedview
     id="namedview2"
     pagecolor="#ffffff"
     bordercolor="#000000"
     borderopacity="0.25"
     inkscape:showpageshadow="2"
     inkscape:pageopacity="0.0"
     inkscape:pagecheckerboard="0"
     inkscape:deskcolor="#d1d1d1"
     inkscape:zoom="8.5520833"
     inkscape:cx="-1.2862363"
     inkscape:cy="9.7637028"
     inkscape:window-width="1920"
     inkscape:window-height="1017"
     inkscape:window-x="-8"
     inkscape:window-y="-8"
     inkscape:window-maximized="1"
     inkscape:current-layer="svg2" />
  <path
     d="m 39.789281,21.796102 c 0,-4.122533 -3.322168,-7.557978 -7.30877,-7.557978 -1.59464,0 -3.056394,0.549671 -4.252375,1.511596 -0.79732,-2.885773 -3.587941,-4.94704 -7.042996,-4.94704 -4.385263,0 -7.973203,3.71028 -7.973203,8.245067 0,0.412253 0,0.824506 0.132886,1.23676 -2.391961,0.687089 -4.1194879,2.885773 -4.1194879,5.634129 0,3.023191 2.3919609,5.496711 5.3154689,5.496711 h 25.248477 c 2.923507,0 5.315469,-2.47352 5.315469,-5.496711 0,-3.023192 -2.391962,-4.122534 -5.315469,-4.122534 z"
     fill="#282f3b"
     id="path1"
     style="stroke-width:1.35133" />
  <path
     d="m 33.144944,28.666992 c 0,-4.122534 -3.322168,-7.557978 -7.308769,-7.557978 -1.594641,0 -3.056394,0.549671 -4.252376,1.511595 -0.797319,-2.885774 -3.58794,-4.94704 -7.042995,-4.94704 -4.385262,0 -7.9732036,3.71028 -7.9732036,8.245067 0,0.412254 0,0.824507 0.1328867,1.23676 -2.3919609,0.687089 -4.1194883,2.885773 -4.1194883,5.634129 0,3.023191 2.391961,5.496711 5.3154689,5.496711 H 33.144944 c 2.923508,0 5.31547,-2.47352 5.31547,-5.496711 0,-3.023191 -2.391962,-4.122533 -5.31547,-4.122533 z"
     fill="#94979c"
     id="path2"
     style="stroke-width:1.35133" />
</svg>
