<?xml version="1.0" encoding="UTF-8" standalone="no"?>
<svg
   viewBox="0 0 48 48"
   version="1.1"
   id="svg13"
   sodipodi:docname="10d.svg"
   inkscape:version="1.3 (0e150ed6c4, 2023-07-21)"
   xmlns:inkscape="http://www.inkscape.org/namespaces/inkscape"
   xmlns:sodipodi="http://sodipodi.sourceforge.net/DTD/sodipodi-0.dtd"
   xmlns="http://www.w3.org/2000/svg"
   xmlns:svg="http://www.w3.org/2000/svg">
  <defs
     id="defs13" />
  <sodipodi:namedview
     id="namedview13"
     pagecolor="#ffffff"
     bordercolor="#000000"
     borderopacity="0.25"
     inkscape:showpageshadow="2"
     inkscape:pageopacity="0.0"
     inkscape:pagecheckerboard="0"
     inkscape:deskcolor="#d1d1d1"
     inkscape:zoom="17.104167"
     inkscape:cx="23.970767"
     inkscape:cy="24"
     inkscape:window-width="1920"
     inkscape:window-height="1017"
     inkscape:window-x="-8"
     inkscape:window-y="-8"
     inkscape:window-maximized="1"
     inkscape:current-layer="svg13" />
  <!-- Nap -->
  <circle
     cx="18"
     cy="18"
     r="7"
     fill="#ffac33"
     id="circle1" />
  <!-- 8 sugár -->
  <g
     fill="#ffac33"
     id="g8">
    <!-- Fent / Lent -->
    <rect
       x="17"
       y="5"
       width="2"
       height="4"
       rx="1"
       id="rect1" />
    <rect
       x="17"
       y="27"
       width="2"
       height="4"
       rx="1"
       id="rect2" />
    <!-- Bal / Jobb -->
    <rect
       x="5"
       y="17"
       width="4"
       height="2"
       rx="1"
       id="rect3" />
    <rect
       x="27"
       y="17"
       width="4"
       height="2"
       rx="1"
       id="rect4" />
    <!-- Átlósak -->
    <rect
       x="9"
       y="9"
       width="2"
       height="4"
       rx="1"
       transform="rotate(-45 10 11)"
       id="rect5" />
    <rect
       x="25"
       y="9"
       width="2"
       height="4"
       rx="1"
       transform="rotate(45 26 11)"
       id="rect6" />
    <rect
       x="9"
       y="23"
       width="2"
       height="4"
       rx="1"
       transform="rotate(45 10 25)"
       id="rect7" />
    <rect
       x="25"
       y="23"
       width="2"
       height="4"
       rx="1"
       transform="rotate(-45 26 25)"
       id="rect8" />
  </g>
  <!-- Felhő -->
  <path
     d="M34 30c0-3-2.5-5.5-5.5-5.5-1.2 0-2.3.4-3.2 1.1C24.7 23.5 22.6 22 20 22c-3.3 0-6 2.7-6 6 0 .3 0 .6.1.9C12.3 29.4 11 31 11 33c0 2.2 1.8 4 4 4h19c2.2 0 4-1.8 4-4s-1.8-3-4-3z"
     fill="#d1d5db"
     id="path8" />
  <g
     fill="#3b82f6"
     id="g13">
    <rect
       x="75"
       y="145"
       width="6"
       height="18"
       rx="3"
       transform="rotate(15 78 154)"
       id="rect9" />
    <rect
       x="95"
       y="150"
       width="6"
       height="18"
       rx="3"
       transform="rotate(15 98 159)"
       id="rect10" />
    <rect
       x="115"
       y="145"
       width="6"
       height="18"
       rx="3"
       transform="rotate(15 118 154)"
       id="rect11" />
    <rect
       x="135"
       y="150"
       width="6"
       height="18"
       rx="3"
       transform="rotate(15 138 159)"
       id="rect12" />
    <rect
       x="155"
       y="145"
       width="6"
       height="18"
       rx="3"
       transform="rotate(15 158 154)"
       id="rect13" />
  </g>
  <rect
     style="fill:#4f4fff;fill-opacity:1;stroke-width:0.913573"
     id="rect15"
     width="1.1693045"
     height="4.2679648"
     x="29.367519"
     y="26.934662"
     ry="0.52618706"
     transform="rotate(26.978551)" />
  <rect
     style="fill:#4f4fff;fill-opacity:1;stroke-width:0.913573"
     id="rect15-8"
     width="1.1693045"
     height="4.2679648"
     x="32.668343"
     y="25.73477"
     ry="0.52618706"
     transform="rotate(26.978551)" />
  <rect
     style="fill:#4f4fff;fill-opacity:1;stroke-width:0.913573"
     id="rect15-4"
     width="1.1693045"
     height="4.2679648"
     x="35.978127"
     y="24.450371"
     ry="0.52618706"
     transform="rotate(26.978551)" />
  <rect
     style="fill:#4f4fff;fill-opacity:1;stroke-width:0.913573"
     id="rect15-44"
     width="1.1693045"
     height="4.2679648"
     x="38.809853"
     y="23.271288"
     ry="0.52618706"
     transform="rotate(26.978551)" />
  <rect
     style="fill:#4f4fff;fill-opacity:1;stroke-width:0.913573"
     id="rect15-6"
     width="1.1693045"
     height="4.2679648"
     x="42.422012"
     y="21.767361"
     ry="0.52618706"
     transform="rotate(26.978551)" />
  <rect
     style="fill:#4f4fff;fill-opacity:1;stroke-width:0.913573"
     id="rect15-3"
     width="1.1693045"
     height="4.2679648"
     x="45.909977"
     y="20.188612"
     ry="0.52618706"
     transform="rotate(26.978551)" />
</svg>
