<?xml version="1.0" encoding="UTF-8" standalone="no"?>
<svg
   viewBox="0 0 48 48"
   version="1.1"
   id="svg13"
   sodipodi:docname="10d.svg"
   inkscape:version="1.3 (0e150ed6c4, 2023-07-21)"
   xmlns:inkscape="http://www.inkscape.org/namespaces/inkscape"
   xmlns:sodipodi="http://sodipodi.sourceforge.net/DTD/sodipodi-0.dtd"
   xmlns="http://www.w3.org/2000/svg"
   xmlns:svg="http://www.w3.org/2000/svg">
  <defs
     id="defs13" />
  <sodipodi:namedview
     id="namedview13"
     pagecolor="#ffffff"
     bordercolor="#000000"
     borderopacity="0.25"
     inkscape:showpageshadow="2"
     inkscape:pageopacity="0.0"
     inkscape:pagecheckerboard="0"
     inkscape:deskcolor="#d1d1d1"
     inkscape:zoom="8.5520835"
     inkscape:cx="13.563946"
     inkscape:cy="13.739342"
     inkscape:window-width="1920"
     inkscape:window-height="1017"
     inkscape:window-x="-8"
     inkscape:window-y="-8"
     inkscape:window-maximized="1"
     inkscape:current-layer="svg13"
     showgrid="false" />
  <!-- Nap -->
  <circle
     cx="18.783327"
     cy="17.847881"
     r="7.4847536"
     fill="#ffac33"
     id="circle1"
     style="stroke-width:1.06925" />
  <!-- 8 sugár -->
  <g
     fill="#ffac33"
     id="g8"
     transform="matrix(1.0692505,0,0,1.0692505,-0.463183,-1.3986276)">
    <!-- Fent / Lent -->
    <rect
       x="17"
       y="5"
       width="2"
       height="4"
       rx="1"
       id="rect1" />
    <rect
       x="17"
       y="27"
       width="2"
       height="4"
       rx="1"
       id="rect2" />
    <!-- Bal / Jobb -->
    <rect
       x="5"
       y="17"
       width="4"
       height="2"
       rx="1"
       id="rect3" />
    <rect
       x="27"
       y="17"
       width="4"
       height="2"
       rx="1"
       id="rect4" />
    <!-- Átlósak -->
    <rect
       x="9"
       y="9"
       width="2"
       height="4"
       rx="1"
       transform="rotate(-45,10,11)"
       id="rect5" />
    <rect
       x="25"
       y="9"
       width="2"
       height="4"
       rx="1"
       transform="rotate(45,26,11)"
       id="rect6" />
    <rect
       x="9"
       y="23"
       width="2"
       height="4"
       rx="1"
       transform="rotate(45,10,25)"
       id="rect7" />
    <rect
       x="25"
       y="23"
       width="2"
       height="4"
       rx="1"
       transform="rotate(-45,26,25)"
       id="rect8" />
  </g>
  <!-- Felhő -->
  <path
     d="m 35.891333,30.678887 c 0,-3.207752 -2.673126,-5.880878 -5.880878,-5.880878 -1.2831,0 -2.459276,0.4277 -3.421601,1.176175 -0.64155,-2.245426 -2.886976,-3.849301 -5.667028,-3.849301 -3.528526,0 -6.415503,2.886976 -6.415503,6.415503 0,0.320775 0,0.64155 0.106925,0.962325 -1.92465,0.534625 -3.314676,2.245426 -3.314676,4.383927 0,2.352351 1.924651,4.277002 4.277002,4.277002 h 20.315759 c 2.352351,0 4.277002,-1.924651 4.277002,-4.277002 0,-2.352351 -1.924651,-3.207751 -4.277002,-3.207751 z"
     fill="#d1d5db"
     id="path8"
     style="stroke-width:1.06925" />
  <g
     fill="#3b82f6"
     id="g13">
    <rect
       x="75"
       y="145"
       width="6"
       height="18"
       rx="3"
       transform="rotate(15 78 154)"
       id="rect9" />
    <rect
       x="95"
       y="150"
       width="6"
       height="18"
       rx="3"
       transform="rotate(15 98 159)"
       id="rect10" />
    <rect
       x="115"
       y="145"
       width="6"
       height="18"
       rx="3"
       transform="rotate(15 118 154)"
       id="rect11" />
    <rect
       x="135"
       y="150"
       width="6"
       height="18"
       rx="3"
       transform="rotate(15 138 159)"
       id="rect12" />
    <rect
       x="155"
       y="145"
       width="6"
       height="18"
       rx="3"
       transform="rotate(15 158 154)"
       id="rect13" />
  </g>
  <rect
     style="fill:#4f4fff;fill-opacity:1;stroke-width:0.976838"
     id="rect15"
     width="1.2502794"
     height="4.5635233"
     x="30.245564"
     y="28.239666"
     ry="0.56262577"
     transform="rotate(26.978551)" />
  <rect
     style="fill:#4f4fff;fill-opacity:1;stroke-width:0.976838"
     id="rect15-8"
     width="1.2502794"
     height="4.5635233"
     x="33.855003"
     y="26.424906"
     ry="0.56262577"
     transform="rotate(26.978551)" />
  <rect
     style="fill:#4f4fff;fill-opacity:1;stroke-width:0.976838"
     id="rect15-4"
     width="1.2502794"
     height="4.5635233"
     x="37.503395"
     y="24.715277"
     ry="0.56262577"
     transform="rotate(26.978551)" />
  <rect
     style="fill:#4f4fff;fill-opacity:1;stroke-width:0.976838"
     id="rect15-44"
     width="1.2502794"
     height="4.5635233"
     x="41.115685"
     y="23.086872"
     ry="0.56262577"
     transform="rotate(26.978551)" />
  <rect
     style="fill:#4f4fff;fill-opacity:1;stroke-width:0.976838"
     id="rect15-6"
     width="1.2502794"
     height="4.5635233"
     x="44.583973"
     y="21.118189"
     ry="0.56262577"
     transform="rotate(26.978551)" />
  <rect
     style="fill:#4f4fff;fill-opacity:1;stroke-width:0.976838"
     id="rect15-3"
     width="1.2502794"
     height="4.5635233"
     x="48.70245"
     y="19.09181"
     ry="0.56262577"
     transform="rotate(26.978551)" />
</svg>
