<?xml version="1.0" encoding="UTF-8" standalone="no"?>
<svg
   version="1.1"
   viewBox="0 0 47.5 47.5"
   style="enable-background:new 0 0 47.5 47.5;"
   id="svg2"
   xml:space="preserve"
   sodipodi:docname="10n.svg"
   inkscape:version="1.3 (0e150ed6c4, 2023-07-21)"
   xmlns:inkscape="http://www.inkscape.org/namespaces/inkscape"
   xmlns:sodipodi="http://sodipodi.sourceforge.net/DTD/sodipodi-0.dtd"
   xmlns="http://www.w3.org/2000/svg"
   xmlns:svg="http://www.w3.org/2000/svg"><sodipodi:namedview
   id="namedview1"
   pagecolor="#ffffff"
   bordercolor="#000000"
   borderopacity="0.25"
   inkscape:showpageshadow="2"
   inkscape:pageopacity="0.0"
   inkscape:pagecheckerboard="0"
   inkscape:deskcolor="#d1d1d1"
   inkscape:zoom="12.221782"
   inkscape:cx="27.491898"
   inkscape:cy="27.287345"
   inkscape:window-width="1920"
   inkscape:window-height="1017"
   inkscape:window-x="-8"
   inkscape:window-y="-8"
   inkscape:window-maximized="1"
   inkscape:current-layer="g16" />&#10;<defs
   id="defs6">&#10;<clipPath
   id="clipPath18"><path
     d="M 0,38 38,38 38,0 0,0 0,38 z"
     id="path20" /></clipPath></defs>&#10;<g
   transform="matrix(1.25,0,0,-1.25,0,47.5)"
   id="g12">&#10;<g
   id="g14">&#10;<g
   clip-path="url(#clipPath18)"
   id="g16">&#10;<g
   transform="translate(22.036293,23.887232)"
   id="g42"
   style="fill:#545454;fill-opacity:1">&#10;<path
   d="m 0,0 c 0,4.971 -4.029,9 -9,9 -4.971,0 -9,-4.029 -9,-9 0,-4.97 4.029,-9 9,-9 4.971,0 9,4.03 9,9"
   id="path44"
   style="fill:#545454;fill-opacity:1;fill-rule:nonzero;stroke:none" />&#10;</g>&#10;<g
   transform="translate(29,22.171095)"
   id="g46">&#10;<path
   d="M 0,0 C -0.825,0 -1.62,-0.125 -2.369,-0.357 -3.256,2.178 -5.662,4 -8.5,4 -11.544,4 -14.092,1.904 -14.799,-0.921 -15.553,-0.351 -16.481,0 -17.5,0 -19.985,0 -22,-2.015 -22,-4.5 c 0,-0.604 0.123,-1.178 0.339,-1.704 C -22.09,-6.085 -22.533,-6 -23,-6 c -2.762,0 -5,-2.238 -5,-5 0,-2.762 2.238,-5 5,-5 H 0 c 4.418,0 8,3.581 8,8 0,4.418 -3.582,8 -8,8"
   id="path48"
   style="fill:#b4c3cc;fill-opacity:1;fill-rule:nonzero;stroke:none" />&#10;</g>&#10;</g>&#10;</g>&#10;</g>&#10;</svg>
