<?xml version="1.0" encoding="UTF-8" standalone="no"?>
<svg xmlns:svg="http://www.w3.org/2000/svg" xmlns="http://www.w3.org/2000/svg" 
version="1.1" viewBox="0 0 47.5 47.5" style="enable-background:new 0 0 47.5 47.5;" id="svg2" xml:space="preserve">
<defs id="defs6">
<clipPath id="clipPath18"><path d="M 0,38 38,38 38,0 0,0 0,38 z" id="path20"/></clipPath></defs>
<g transform="matrix(1.25,0,0,-1.25,0,47.5)" id="g12">
<g id="g14">
<g clip-path="url(#clipPath18)" id="g16">
<g transform="translate(24,25)" id="g42">
<path d="m 0,0 c 0,4.971 -4.029,9 -9,9 -4.971,0 -9,-4.029 -9,-9 0,-4.97 4.029,-9 9,-9 4.971,0 9,4.03 9,9" id="path44" style="fill:#f5f3ce;fill-opacity:1;fill-rule:nonzero;stroke:none"/>
</g>
<g transform="translate(29,17)" id="g46">
<path d="M 0,0 C -0.825,0 -1.62,-0.125 -2.369,-0.357 -3.256,2.178 -5.662,4 -8.5,4 -11.544,4 -14.092,1.904 -14.799,-0.921 -15.553,-0.351 -16.481,0 -17.5,0 -19.985,0 -22,-2.015 -22,-4.5 c 0,-0.604 0.123,-1.178 0.339,-1.704 C -22.09,-6.085 -22.533,-6 -23,-6 c -2.762,0 -5,-2.238 -5,-5 0,-2.762 2.238,-5 5,-5 l 23,0 c 4.418,0 8,3.581 8,8 0,4.418 -3.582,8 -8,8" id="path48" style="fill:#b4c3cc;fill-opacity:1;fill-rule:nonzero;stroke:none"/>
</g>
</g>
</g>
</g>
</svg>
