<?xml version="1.0" encoding="UTF-8" standalone="no"?>
<svg
   viewBox="0 0 48 48"
   version="1.1"
   id="svg3"
   sodipodi:docname="11n.svg"
   inkscape:version="1.3 (0e150ed6c4, 2023-07-21)"
   xmlns:inkscape="http://www.inkscape.org/namespaces/inkscape"
   xmlns:sodipodi="http://sodipodi.sourceforge.net/DTD/sodipodi-0.dtd"
   xmlns="http://www.w3.org/2000/svg"
   xmlns:svg="http://www.w3.org/2000/svg">
  <defs
     id="defs3" />
  <sodipodi:namedview
     id="namedview3"
     pagecolor="#ffffff"
     bordercolor="#000000"
     borderopacity="0.25"
     inkscape:showpageshadow="2"
     inkscape:pageopacity="0.0"
     inkscape:pagecheckerboard="0"
     inkscape:deskcolor="#d1d1d1"
     inkscape:zoom="6.0472361"
     inkscape:cx="-21.332059"
     inkscape:cy="2.5631544"
     inkscape:window-width="1920"
     inkscape:window-height="1017"
     inkscape:window-x="-8"
     inkscape:window-y="-8"
     inkscape:window-maximized="1"
     inkscape:current-layer="svg3" />
  <path
     d="m 40.613226,19.885766 c 0,-4.05873 -3.382273,-7.441003 -7.441002,-7.441003 -1.623491,0 -3.111692,0.541164 -4.329311,1.4882 -0.811745,-2.841109 -3.652855,-4.8704735 -7.17042,-4.8704735 -4.464601,0 -8.117457,3.6528555 -8.117457,8.1174565 0,0.405873 0,0.811746 0.135291,1.217619 -2.435237,0.676455 -4.1940195,2.841109 -4.1940195,5.546929 0,2.976401 2.4352365,5.411638 5.4116375,5.411638 h 25.705281 c 2.976401,0 5.411638,-2.435237 5.411638,-5.411638 0,-2.976401 -2.435237,-4.058728 -5.411638,-4.058728 z"
     fill="#282f3b"
     id="path1"
     style="stroke-width:1.35291" />
  <path
     d="m 33.848679,26.650312 c 0,-4.058728 -3.382274,-7.441002 -7.441003,-7.441002 -1.623491,0 -3.111691,0.541164 -4.329309,1.488201 -0.811747,-2.84111 -3.652857,-4.870475 -7.170422,-4.870475 -4.464601,0 -8.1174565,3.652857 -8.1174565,8.117458 0,0.405873 0,0.811745 0.1352908,1.217618 -2.435237,0.676455 -4.1940194,2.84111 -4.1940194,5.54693 0,2.976401 2.4352372,5.411638 5.411638,5.411638 H 33.848679 c 2.976401,0 5.411638,-2.435237 5.411638,-5.411638 0,-2.976401 -2.435237,-4.05873 -5.411638,-4.05873 z"
     fill="#94979c"
     id="path2"
     style="stroke-width:1.35291" />
  <path
     d="m 18.977242,28.32824 -1.35291,5.411638 h 4.058729 l -2.705819,10.823276 9.25721,-13.036284 -5.02012,-0.167794 1.363476,-2.905315 z"
     fill="#ffd400"
     id="path3"
     sodipodi:nodetypes="cccccccc"
     style="stroke-width:1.35291" />
</svg>
