<?xml version="1.0" encoding="iso-8859-1"?>
<!-- Uploaded to: SVG Repo, www.svgrepo.com, Generator: SVG Repo Mixer Tools -->
<svg height="800px" width="800px" version="1.1" id="Layer_1" xmlns="http://www.w3.org/2000/svg" xmlns:xlink="http://www.w3.org/1999/xlink" 
	 viewBox="0 0 504.32 504.32" xml:space="preserve">
<g transform="translate(1 9)">
	<path style="fill:#AAB1BA;" d="M127,149.293c1.707,0,2.56,0,4.267,0c18.773,0,35.84,5.973,51.2,15.36
		c2.56-6.827,5.12-12.8,8.533-18.773c1.707-2.56,2.56-5.12,4.267-6.827c1.707-2.56,3.413-5.12,5.973-7.68
		c4.267-5.973,9.387-11.093,15.36-16.213c1.707-1.707,3.413-2.56,5.12-4.267c2.56-1.707,5.12-4.267,7.68-5.973l0,0
		c20.48-14.507,46.08-23.04,72.533-23.04c70.827,0,128,57.173,128,128c0,4.267,0,7.68-0.853,11.947
		c40.107,11.093,69.12,46.933,69.12,90.453c0,52.053-41.813,93.867-93.867,93.867H344.6H122.733H63
		c-33.28,0-59.733-26.453-59.733-59.733c0-28.16,19.627-51.2,45.227-58.027c-6.827-13.653-11.093-28.16-11.093-44.373
		c0-29.867,14.507-57.173,36.693-74.24l0,0c10.24-7.68,21.333-13.653,34.133-17.067c2.56-0.853,5.12-0.853,7.68-1.707
		c2.56-0.853,5.973-0.853,8.533-0.853C125.293,149.293,126.147,149.293,127,149.293"/>
	<path style="fill:#e5e5e5 ;" d="M229.4,104.067L229.4,104.067c-2.56,1.707-5.12,4.267-7.68,5.973
		c-1.707,1.707-3.413,2.56-5.12,4.267c-5.12,5.12-11.093,10.24-15.36,16.213c-1.707,2.56-4.267,5.12-5.973,7.68
		s-3.413,4.267-4.267,6.827c-3.413,5.973-6.827,12.8-9.387,18.773c-14.507-9.387-32.427-15.36-51.2-15.36c-1.707,0-2.56,0-4.267,0
		c-0.853,0-1.707,0-3.413,0c-3.413,0-5.973,0.853-8.533,0.853c-2.56,0-5.12,0.853-7.68,1.707
		c-12.8,3.413-23.893,8.533-34.133,16.213c-1.707-5.973-2.56-12.8-2.56-19.627c0-46.933,38.4-85.333,85.333-85.333
		C187.587,63.96,214.04,80.173,229.4,104.067"/>
</g>

</svg>